<mxfile host="app.diagrams.net" agent="Mozilla/5.0 (X11; Linux x86_64; rv:140.0) Gecko/20100101 Firefox/140.0" version="27.2.0">
  <diagram name="Page-1" id="f5j4IdUzGsH9WSDGuBpm">
    <mxGraphModel dx="909" dy="1611" grid="1" gridSize="10" guides="1" tooltips="1" connect="1" arrows="1" fold="1" page="1" pageScale="1" pageWidth="850" pageHeight="1100" math="0" shadow="0">
      <root>
        <mxCell id="0" />
        <mxCell id="1" parent="0" />
        <mxCell id="A2U2XuVipRw1U0r7mwgb-1" value="" style="rounded=1;whiteSpace=wrap;html=1;" parent="1" vertex="1">
          <mxGeometry x="160" y="-70" width="460" height="810" as="geometry" />
        </mxCell>
        <mxCell id="A2U2XuVipRw1U0r7mwgb-2" value="Admin" style="shape=umlActor;verticalLabelPosition=bottom;verticalAlign=top;html=1;outlineConnect=0;" parent="1" vertex="1">
          <mxGeometry x="90" y="-20" width="30" height="60" as="geometry" />
        </mxCell>
        <mxCell id="A2U2XuVipRw1U0r7mwgb-3" value="Manager" style="shape=umlActor;verticalLabelPosition=bottom;verticalAlign=top;html=1;outlineConnect=0;" parent="1" vertex="1">
          <mxGeometry x="90" y="170" width="30" height="60" as="geometry" />
        </mxCell>
        <mxCell id="A2U2XuVipRw1U0r7mwgb-4" value="Bartender" style="shape=umlActor;verticalLabelPosition=bottom;verticalAlign=top;html=1;outlineConnect=0;" parent="1" vertex="1">
          <mxGeometry x="80" y="640" width="30" height="60" as="geometry" />
        </mxCell>
        <mxCell id="A2U2XuVipRw1U0r7mwgb-5" value="Costumer" style="shape=umlActor;verticalLabelPosition=bottom;verticalAlign=top;html=1;outlineConnect=0;" parent="1" vertex="1">
          <mxGeometry x="680" y="-20" width="30" height="60" as="geometry" />
        </mxCell>
        <mxCell id="A2U2XuVipRw1U0r7mwgb-6" value="Register Manager" style="ellipse;whiteSpace=wrap;html=1;" parent="1" vertex="1">
          <mxGeometry x="210" y="50" width="120" height="50" as="geometry" />
        </mxCell>
        <mxCell id="A2U2XuVipRw1U0r7mwgb-7" value="Register Bartender" style="ellipse;whiteSpace=wrap;html=1;" parent="1" vertex="1">
          <mxGeometry x="210" y="270" width="120" height="50" as="geometry" />
        </mxCell>
        <mxCell id="A2U2XuVipRw1U0r7mwgb-8" value="Register Security" style="ellipse;whiteSpace=wrap;html=1;" parent="1" vertex="1">
          <mxGeometry x="210" y="200" width="120" height="50" as="geometry" />
        </mxCell>
        <mxCell id="A2U2XuVipRw1U0r7mwgb-9" value="Register Event" style="ellipse;whiteSpace=wrap;html=1;" parent="1" vertex="1">
          <mxGeometry x="210" y="130" width="120" height="50" as="geometry" />
        </mxCell>
        <mxCell id="A2U2XuVipRw1U0r7mwgb-10" value="Register Costumer" style="ellipse;whiteSpace=wrap;html=1;" parent="1" vertex="1">
          <mxGeometry x="450" y="50" width="120" height="50" as="geometry" />
        </mxCell>
        <mxCell id="A2U2XuVipRw1U0r7mwgb-11" value="Get event analytics" style="ellipse;whiteSpace=wrap;html=1;" parent="1" vertex="1">
          <mxGeometry x="210" y="340" width="120" height="50" as="geometry" />
        </mxCell>
        <mxCell id="A2U2XuVipRw1U0r7mwgb-12" value="Register sale into costumer receipt" style="ellipse;whiteSpace=wrap;html=1;" parent="1" vertex="1">
          <mxGeometry x="210" y="650" width="120" height="50" as="geometry" />
        </mxCell>
        <mxCell id="A2U2XuVipRw1U0r7mwgb-14" value="Register Item into shopping list" style="ellipse;whiteSpace=wrap;html=1;" parent="1" vertex="1">
          <mxGeometry x="210" y="400" width="120" height="50" as="geometry" />
        </mxCell>
        <mxCell id="A2U2XuVipRw1U0r7mwgb-15" value="Register expenses" style="ellipse;whiteSpace=wrap;html=1;" parent="1" vertex="1">
          <mxGeometry x="210" y="465" width="120" height="50" as="geometry" />
        </mxCell>
        <mxCell id="A2U2XuVipRw1U0r7mwgb-17" value="Register attraction" style="ellipse;whiteSpace=wrap;html=1;" parent="1" vertex="1">
          <mxGeometry x="210" y="520" width="120" height="50" as="geometry" />
        </mxCell>
        <mxCell id="A2U2XuVipRw1U0r7mwgb-18" style="edgeStyle=orthogonalEdgeStyle;rounded=0;orthogonalLoop=1;jettySize=auto;html=1;exitX=0.5;exitY=1;exitDx=0;exitDy=0;" parent="1" source="A2U2XuVipRw1U0r7mwgb-11" target="A2U2XuVipRw1U0r7mwgb-11" edge="1">
          <mxGeometry relative="1" as="geometry" />
        </mxCell>
        <mxCell id="A2U2XuVipRw1U0r7mwgb-19" value="" style="endArrow=none;html=1;rounded=0;exitX=0.5;exitY=0.5;exitDx=0;exitDy=0;exitPerimeter=0;entryX=0;entryY=0.5;entryDx=0;entryDy=0;" parent="1" source="A2U2XuVipRw1U0r7mwgb-2" target="A2U2XuVipRw1U0r7mwgb-6" edge="1">
          <mxGeometry width="50" height="50" relative="1" as="geometry">
            <mxPoint x="140" y="350" as="sourcePoint" />
            <mxPoint x="190" y="300" as="targetPoint" />
          </mxGeometry>
        </mxCell>
        <mxCell id="A2U2XuVipRw1U0r7mwgb-20" value="" style="endArrow=none;html=1;rounded=0;exitX=0.5;exitY=0.5;exitDx=0;exitDy=0;exitPerimeter=0;entryX=0;entryY=0.5;entryDx=0;entryDy=0;" parent="1" source="A2U2XuVipRw1U0r7mwgb-2" target="A2U2XuVipRw1U0r7mwgb-9" edge="1">
          <mxGeometry width="50" height="50" relative="1" as="geometry">
            <mxPoint x="75" y="30" as="sourcePoint" />
            <mxPoint x="160" y="320" as="targetPoint" />
          </mxGeometry>
        </mxCell>
        <mxCell id="A2U2XuVipRw1U0r7mwgb-21" value="" style="endArrow=none;html=1;rounded=0;exitX=0.5;exitY=0.5;exitDx=0;exitDy=0;exitPerimeter=0;entryX=0;entryY=0.5;entryDx=0;entryDy=0;" parent="1" source="A2U2XuVipRw1U0r7mwgb-2" target="A2U2XuVipRw1U0r7mwgb-8" edge="1">
          <mxGeometry width="50" height="50" relative="1" as="geometry">
            <mxPoint x="90" y="440" as="sourcePoint" />
            <mxPoint x="140" y="390" as="targetPoint" />
          </mxGeometry>
        </mxCell>
        <mxCell id="A2U2XuVipRw1U0r7mwgb-22" value="" style="endArrow=none;html=1;rounded=0;exitX=0.5;exitY=0.5;exitDx=0;exitDy=0;exitPerimeter=0;entryX=0;entryY=0.5;entryDx=0;entryDy=0;" parent="1" source="A2U2XuVipRw1U0r7mwgb-2" target="A2U2XuVipRw1U0r7mwgb-7" edge="1">
          <mxGeometry width="50" height="50" relative="1" as="geometry">
            <mxPoint x="70" y="450" as="sourcePoint" />
            <mxPoint x="120" y="400" as="targetPoint" />
          </mxGeometry>
        </mxCell>
        <mxCell id="A2U2XuVipRw1U0r7mwgb-23" value="" style="endArrow=none;html=1;rounded=0;exitX=0.5;exitY=0.5;exitDx=0;exitDy=0;exitPerimeter=0;entryX=0;entryY=0.5;entryDx=0;entryDy=0;" parent="1" source="A2U2XuVipRw1U0r7mwgb-3" target="A2U2XuVipRw1U0r7mwgb-11" edge="1">
          <mxGeometry width="50" height="50" relative="1" as="geometry">
            <mxPoint x="105" y="230" as="sourcePoint" />
            <mxPoint x="20" y="610" as="targetPoint" />
          </mxGeometry>
        </mxCell>
        <mxCell id="A2U2XuVipRw1U0r7mwgb-24" value="" style="endArrow=none;html=1;rounded=0;exitX=0.5;exitY=0.5;exitDx=0;exitDy=0;exitPerimeter=0;entryX=0;entryY=0.5;entryDx=0;entryDy=0;" parent="1" source="A2U2XuVipRw1U0r7mwgb-3" target="A2U2XuVipRw1U0r7mwgb-14" edge="1">
          <mxGeometry width="50" height="50" relative="1" as="geometry">
            <mxPoint x="140" y="310" as="sourcePoint" />
            <mxPoint x="245" y="475" as="targetPoint" />
          </mxGeometry>
        </mxCell>
        <mxCell id="A2U2XuVipRw1U0r7mwgb-25" value="" style="endArrow=none;html=1;rounded=0;exitX=0.5;exitY=0.5;exitDx=0;exitDy=0;exitPerimeter=0;entryX=0;entryY=0.5;entryDx=0;entryDy=0;" parent="1" source="A2U2XuVipRw1U0r7mwgb-3" target="A2U2XuVipRw1U0r7mwgb-15" edge="1">
          <mxGeometry width="50" height="50" relative="1" as="geometry">
            <mxPoint x="40" y="420" as="sourcePoint" />
            <mxPoint x="145" y="585" as="targetPoint" />
          </mxGeometry>
        </mxCell>
        <mxCell id="A2U2XuVipRw1U0r7mwgb-26" value="" style="endArrow=none;html=1;rounded=0;entryX=0;entryY=0.5;entryDx=0;entryDy=0;exitX=0.5;exitY=0.5;exitDx=0;exitDy=0;exitPerimeter=0;" parent="1" source="A2U2XuVipRw1U0r7mwgb-3" target="A2U2XuVipRw1U0r7mwgb-17" edge="1">
          <mxGeometry width="50" height="50" relative="1" as="geometry">
            <mxPoint x="100" y="290" as="sourcePoint" />
            <mxPoint x="275" y="720" as="targetPoint" />
          </mxGeometry>
        </mxCell>
        <mxCell id="A2U2XuVipRw1U0r7mwgb-27" value="" style="endArrow=none;html=1;rounded=0;entryX=0;entryY=0.5;entryDx=0;entryDy=0;exitX=0.5;exitY=0.5;exitDx=0;exitDy=0;exitPerimeter=0;" parent="1" source="A2U2XuVipRw1U0r7mwgb-4" target="A2U2XuVipRw1U0r7mwgb-12" edge="1">
          <mxGeometry width="50" height="50" relative="1" as="geometry">
            <mxPoint x="280" y="820" as="sourcePoint" />
            <mxPoint x="330" y="770" as="targetPoint" />
          </mxGeometry>
        </mxCell>
        <mxCell id="A2U2XuVipRw1U0r7mwgb-28" value="Buy items from menu" style="ellipse;whiteSpace=wrap;html=1;" parent="1" vertex="1">
          <mxGeometry x="450" y="130" width="120" height="50" as="geometry" />
        </mxCell>
        <mxCell id="A2U2XuVipRw1U0r7mwgb-29" value="Register menu item" style="ellipse;whiteSpace=wrap;html=1;" parent="1" vertex="1">
          <mxGeometry x="210" y="580" width="120" height="50" as="geometry" />
        </mxCell>
        <mxCell id="A2U2XuVipRw1U0r7mwgb-30" value="" style="endArrow=none;html=1;rounded=0;exitX=0.5;exitY=0.5;exitDx=0;exitDy=0;exitPerimeter=0;entryX=0;entryY=0.5;entryDx=0;entryDy=0;" parent="1" source="A2U2XuVipRw1U0r7mwgb-3" target="A2U2XuVipRw1U0r7mwgb-29" edge="1">
          <mxGeometry width="50" height="50" relative="1" as="geometry">
            <mxPoint x="170" y="430" as="sourcePoint" />
            <mxPoint x="220" y="380" as="targetPoint" />
          </mxGeometry>
        </mxCell>
        <mxCell id="A2U2XuVipRw1U0r7mwgb-31" value="" style="endArrow=none;html=1;rounded=0;entryX=0.5;entryY=0.5;entryDx=0;entryDy=0;entryPerimeter=0;exitX=1;exitY=0.5;exitDx=0;exitDy=0;" parent="1" source="A2U2XuVipRw1U0r7mwgb-10" target="A2U2XuVipRw1U0r7mwgb-5" edge="1">
          <mxGeometry width="50" height="50" relative="1" as="geometry">
            <mxPoint x="720" y="210" as="sourcePoint" />
            <mxPoint x="770" y="160" as="targetPoint" />
          </mxGeometry>
        </mxCell>
        <mxCell id="A2U2XuVipRw1U0r7mwgb-32" value="" style="endArrow=none;html=1;rounded=0;exitX=1;exitY=0.5;exitDx=0;exitDy=0;entryX=0.5;entryY=0.5;entryDx=0;entryDy=0;entryPerimeter=0;" parent="1" source="A2U2XuVipRw1U0r7mwgb-28" target="A2U2XuVipRw1U0r7mwgb-5" edge="1">
          <mxGeometry width="50" height="50" relative="1" as="geometry">
            <mxPoint x="720" y="260" as="sourcePoint" />
            <mxPoint x="770" y="210" as="targetPoint" />
          </mxGeometry>
        </mxCell>
      </root>
    </mxGraphModel>
  </diagram>
</mxfile>
